# xmcd
#
# Track frame offsets: 
#        150
#        16805
#        36726
#        60547
#        74718
#        89982
#        110734
#        127966
#        143773
#        161061
#        182338
#        199970
#        218719
#        239224
#        257320
#
# Disc length: 3671 seconds
#
# Revision: 0
# Processed by: cddbd v1.5.2PL0 Copyright (c) Steve Scherf et al.
# Submitted via: ExactAudioCopy v0.99pb1
#
DISCID=e80e550f
DTITLE=Quintus McCormick Blues Band - Hey Jodie !
DYEAR=2009
DGENRE=Blues
TTITLE0=Hey Jodie! (Take Good Care Of My Baby)
TTITLE1=Get You Some Business
TTITLE2=What Goes Around Comes Around
TTITLE3=You Should Learn From This
TTITLE4=Fifty\\Fifty
TTITLE5=You Got To Do Me Better Than That 
TTITLE6=I'm Alright Now
TTITLE7=Get That Money
TTITLE8=Hot Lovin' Woman
TTITLE9=Plano Texas Blues
TTITLE10=I'm A Good Man, Baby
TTITLE11=I Wasn't Thinking
TTITLE12=There Ain't No Right Way To Do Wrong
TTITLE13=You Got It
TTITLE14=Let The Good Times Roll
EXTD=
EXTT0=
EXTT1=
EXTT2=
EXTT3=
EXTT4=
EXTT5=
EXTT6=
EXTT7=
EXTT8=
EXTT9=
EXTT10=
EXTT11=
EXTT12=
EXTT13=
EXTT14=
PLAYORDER=
